<?xml version="1.0" encoding="UTF-8"?>
<svg id="Layer_1" data-name="Layer 1" xmlns="http://www.w3.org/2000/svg" version="1.1" viewBox="0 0 1024 1024">
  <defs>
    <style>
      .cls-1 {
        fill: #f9ed32;
      }

      .cls-1, .cls-2, .cls-3, .cls-4, .cls-5, .cls-6, .cls-7 {
        stroke-width: 0px;
      }

      .cls-2 {
        fill: #27aae1;
      }

      .cls-3 {
        fill: #ff8b2c;
      }

      .cls-4 {
        fill: #ef4136;
      }

      .cls-5 {
        fill: #2bb673;
      }

      .cls-6 {
        fill: #fff;
      }

      .cls-7 {
        fill: #092049;
      }
    </style>
  </defs>
  <circle class="cls-7" cx="511.7" cy="511.6" r="512"/>
  <circle class="cls-6" cx="511.7" cy="511.6" r="477.5" transform="translate(-211.9 511.7) rotate(-45)"/>
  <g>
    <path class="cls-4" d="M488.2,34.7c-2.7,2-5.5,4.2-8.3,6.5-44.1,36-37.3,51.7-37.3,51.7,0,0,2.4,15.7,68.9,67.9,66.6,52.2,94.5,60.2,94.5,60.2,0,0,26.3,10,111.9,6.8,85.6-3.1,95.7-14.4,95.7-14.4,0,0,15.1-7.3.2-63.7-1-3.6-1.9-7-2.9-10.3-6-4.8-12.2-9.5-18.5-14.1-91.7-66.6-199.2-95.9-304.2-90.6Z"/>
    <path class="cls-7" d="M686.4,247.9c-58.1,0-81.4-6.7-86.4-8.4-5.7-1.8-36.3-13.1-100.4-63.4-44.9-35.2-70.2-61.1-75.4-77-1.7-4.9-3-13.9,2.8-26.7,6.3-13.9,20-29.6,40.7-46.4,3-2.4,6-4.8,8.9-7l4.8-3.6,6-.3c55.4-2.8,110.5,3.7,163.5,19.1,54.9,16,106.4,41.3,153.1,75.2,6.4,4.7,12.9,9.6,19.2,14.7l4.7,3.8,1.8,5.8c1.1,3.5,2.1,7.2,3.1,11,7.1,26.8,8.9,47.1,5.7,62.1-2.7,12.6-8.7,19-13,22.2-4.8,3.8-12.2,6.8-22.9,9.4-18.8,4.6-47,7.6-83.8,8.9-11.8.4-22.5.6-32.3.6ZM612.9,202.7c3.2,1,30.7,8.3,104.3,5.6,56.5-2.1,77.1-7.7,83.1-9.9.9-4.2,1.9-16.5-5.3-43.8-.3-1.3-.7-2.6-1-3.8-4.3-3.4-8.6-6.6-13-9.8-43-31.3-90.5-54.6-141.1-69.3-47-13.7-95.6-19.7-144.6-17.9-1,.8-2,1.6-3,2.4-21.7,17.7-28,28.3-29.8,32.4,3.9,5.7,17.7,22.5,61.2,56.7,58.7,46,85.8,56.1,88,56.9l1.3.3h0ZM802.3,197.6h0Z"/>
  </g>
  <g>
    <path class="cls-2" d="M321.4,132.3s-2.3-16.6-60.5-19.9c-3.8-.2-7.4-.3-10.9-.4-47.1,30.8-89.5,70.6-124.6,118.8-35.1,48.3-59.9,101.1-74.6,155.5,1.1,3.2,2.3,6.6,3.7,10.1,20.6,53.1,37.6,51.4,37.6,51.4,0,0,15.7,2.6,85.9-44.6,70.2-47.2,86.5-71.3,86.5-71.3,0,0,17.6-21.9,41.1-104.3,23.5-82.4,15.9-95.5,15.9-95.5Z"/>
    <path class="cls-7" d="M91.9,467.5c-5.3,0-14-1.8-24-10.9-11.3-10.3-21.9-28.1-31.6-53-1.4-3.6-2.7-7.2-4-10.8l-1.9-5.7,1.6-5.8c15.8-58.2,41.9-112.6,77.7-161.8,35.7-49.1,79.3-90.7,129.6-123.7l5-3.3h6c3.8.2,7.7.3,11.6.5,27.6,1.5,47.5,6,60.8,13.8,11.2,6.5,15.4,14.1,17.1,19.2,2.1,5.7,2.7,13.7,1.9,24.7-1.5,19.3-7.3,47.1-17.4,82.5-22.5,78.9-40.4,105.5-44.1,110.5-3.5,4.9-23.7,30.5-91.4,75.9-47.3,31.8-79.8,47.9-96.5,47.9-.2,0-.3,0-.5,0ZM71.3,385.7c.5,1.3.9,2.5,1.4,3.8,10.1,26.1,18.3,35.4,21.6,38.4,6.7-2,26.9-9.9,72.8-40.7,61.9-41.6,79.9-64.2,81.3-66.1l.7-1.1h.1c1.9-2.8,17.4-26.7,37.5-97.5,15.5-54.4,16.5-75.7,16.3-82-3.8-2.1-15.1-6.9-43.3-8.5-1.4,0-2.8-.1-4.2-.2-44.2,29.8-82.7,67-114.4,110.6-31.8,43.7-55.3,91.9-70,143.3Z"/>
  </g>
  <g>
    <path class="cls-5" d="M305.7,795.5c-23.2-81.3-41.1-104.3-41.1-104.3,0,0-15.4-23.5-86.5-71.3-71.1-47.8-85.9-44.6-85.9-44.6,0,0-16.5-2.9-37.6,51.4-1.3,3.5-2.6,6.8-3.7,10,27.5,101.4,88.5,194.4,180.1,261,6.4,4.6,12.9,9.1,19.4,13.4,3.4,0,6.9-.2,10.5-.4,56.9-3.2,60.5-19.9,60.5-19.9,0,0,7.3-14.1-15.9-95.5Z"/>
    <path class="cls-7" d="M244.8,930.8l-5-3.3c-6.9-4.5-13.7-9.2-20.2-13.9-46.6-33.9-86.6-75-118.8-122.2-31.1-45.6-54.2-95.9-68.7-149.4l-1.6-5.8,2-5.7c1.2-3.5,2.5-7.1,3.9-10.7,10-25.8,20.4-43.3,31.9-53.6,9.6-8.6,18.2-10.3,23.5-10.3,6.1-.3,13.9,1.7,24.1,5.9,17.9,7.4,42.5,21.5,73.1,42.1,68.1,45.7,87.9,71,91.4,76.1,3.6,4.8,21.6,31.9,44,110.3h0c15.6,54.9,20.9,90.7,15.7,106.6-1.5,5-5.8,13-17.9,19.9-13.3,7.6-33.5,12.2-60.2,13.6-3.8.2-7.6.3-11.3.4h-6ZM71.4,637.6c13.4,47.1,34.2,91.5,61.7,131.8,29.6,43.5,66.4,81.4,109.4,112.6,4.4,3.2,9,6.4,13.6,9.5,1.3,0,2.6-.1,3.8-.2,27.9-1.5,39.3-6.4,43.2-8.7.2-6.9-1.1-28.6-16.2-81.8-20.4-71.8-36.4-95.8-37.8-97.8l-.8-1h0c-2.1-2.8-20-24.9-81.1-65.9-46.9-31.5-66.9-39.1-73-40.8-3.2,2.9-11.3,12.2-21.4,38.5-.5,1.2-1,2.5-1.4,3.7ZM303,885.4h0,0ZM92.1,594.8h0,0Z"/>
  </g>
  <g>
    <path class="cls-1" d="M811.1,883.7c1-3.3,2-6.7,3-10.3,14.6-55-.2-63.7-.2-63.7,0,0-11.2-11.3-95.7-14.4-84.5-3.1-111.9,6.8-111.9,6.8,0,0-27.1,7.4-94.5,60.2-67.4,52.9-68.9,67.9-68.9,67.9,0,0-7.9,14.8,37.3,51.7,2.9,2.4,5.7,4.6,8.5,6.6,115.1,5.5,230.5-30.7,322.5-104.8Z"/>
    <path class="cls-7" d="M511.6,1008.6c-8,0-15.9-.2-23.9-.6l-6-.3-4.8-3.6c-3-2.3-6-4.7-9-7.1-21.5-17.5-34.9-32.8-41.1-46.9-5.2-11.8-4.2-20.5-2.5-25.5,1.6-5.9,5.9-12.7,13-21.1,12.5-14.8,33.6-33.8,62.6-56.5,64.6-50.6,94.7-61.6,100.6-63.5,5.7-1.9,37.1-10.7,118.5-7.7,57,2.1,92.7,8.1,106.2,18,4.3,3,10.6,9.5,13.4,23.2,3.1,15,1.2,35.7-5.6,61.4-1,3.7-2,7.4-3.2,11.1l-1.8,5.7-4.7,3.8c-88.4,71.2-198.3,109.7-311.7,109.7ZM495.6,969.3c108.2,3.8,213.8-30.6,298.5-97,.4-1.3.7-2.6,1.1-3.9,7.2-27,6-39.4,5.1-43.8-6.5-2.3-27.6-7.8-82.8-9.9-74.6-2.7-102.4,5-104.6,5.7l-1.2.5h-.1c-3.2,1.1-29.7,11.3-87.6,56.7-44.5,34.9-57.8,51.5-61.4,56.8,1.8,3.9,8.1,14.5,30,32.3,1,.9,2.1,1.7,3.2,2.5ZM802.7,825.6h0s0,0,0,0Z"/>
  </g>
  <g>
    <path class="cls-3" d="M958.1,341.8c-2.8-1.9-5.7-3.9-8.8-5.9-47.8-30.9-60.7-19.5-60.7-19.5,0,0-14.2,7.1-43.3,86.6-29.1,79.4-28.1,108.5-28.1,108.5,0,0-1.4,28.1,28.1,108.5,29.4,80.4,43.3,86.6,43.3,86.6,0,0,11.7,12.1,60.7-19.5,3.2-2.1,6.2-4.1,9-6.1,42-110.4,40.6-231.4-.2-339.1Z"/>
    <path class="cls-7" d="M897.3,728.3c-9.8,0-16.2-3.1-19.9-5.7-5.1-3.4-10.3-9.5-16.1-18.9-10.2-16.5-21.7-42.4-34.4-77-28.2-77-29.4-109.1-29.3-115.3,0-6,1.3-38.5,29.3-115.1,19.6-53.6,36.4-85.6,49.9-95.5,4.1-3.2,12.3-7.1,26.2-5.6,15.2,1.7,34.3,9.9,56.7,24.3,3.2,2.1,6.4,4.2,9.4,6.3l4.9,3.4,2.1,5.6c43.3,114.1,43.3,239.4.2,353l-2.1,5.6-4.9,3.4c-3.1,2.2-6.4,4.4-9.6,6.5-23.3,15-42,23.1-57.3,24.6-1.8.2-3.6.3-5.2.3ZM900.2,690.9h0,0ZM836.7,512.4c0,3.4,1.6,31.8,26.9,100.9,19.4,53.1,31.1,70.9,35.1,75.9,4.3-.5,16.3-3.3,40-18.6,1.2-.8,2.3-1.5,3.5-2.3,36.9-101.2,36.8-212.2-.2-313.9-1.1-.7-2.2-1.4-3.3-2.1-23.5-15.1-35.6-17.9-40.1-18.4-4.2,5.5-16,23.8-35,75.7-25.6,70.1-26.8,98.9-26.9,101.3v1.3c0,0,0,.1,0,.1ZM900.4,331.9h0,0Z"/>
  </g>
  <path class="cls-7" d="M436.7,743.8c117.6,38.2,158.7,25.7,158.7,25.7,0,0,34.1-5,113.4-114.4,79.3-109.3,73.6-143.3,73.6-143.3,0,0,3.6-37.1-73.4-143.2-77-106.2-113.2-114.2-113.2-114.2,0,0-35.6-14.3-158.8,25.9-123.1,40.2-143.6,72.7-143.6,72.7,0,0-24.6,27.3-24.7,159.2,0,131.9,24.5,159.2,24.5,159.2,0,0,25.9,34.3,143.5,72.5Z"/>
  <polygon class="cls-6" points="414.7 355.7 414.7 667.5 684.7 511.6 414.7 355.7"/>
</svg>