<?xml version="1.0" encoding="UTF-8"?><svg id="StreamDeckIcon_Outlined" xmlns="http://www.w3.org/2000/svg" viewBox="0 0 14.63 14.62"><metadata><c2pa:manifest xmlns:c2pa="http://c2pa.org/manifest">AAA0RGp1bWIAAAAeanVtZGMycGEAEQAQgAAAqgA4m3EDYzJwYQAAADQeanVtYgAAAEdqdW1kYzJtYQARABCAAACqADibcQN1cm46dXVpZDplZjQyZTA3ZS1mNDFmLTQ1OTQtYmVhNS00M2EyNjYxN2EzNmMAAAABtGp1bWIAAAApanVtZGMyYXMAEQAQgAAAqgA4m3EDYzJwYS5hc3NlcnRpb25zAAAAANdqdW1iAAAAJmp1bWRjYm9yABEAEIAAAKoAOJtxA2MycGEuYWN0aW9ucwAAAACpY2JvcqFnYWN0aW9uc4GjZmFjdGlvbmtjMnBhLmVkaXRlZG1zb2Z0d2FyZUFnZW50bUFkb2JlIEZpcmVmbHlxZGlnaXRhbFNvdXJjZVR5cGV4U2h0dHA6Ly9jdi5pcHRjLm9yZy9uZXdzY29kZXMvZGlnaXRhbHNvdXJjZXR5cGUvY29tcG9zaXRlV2l0aFRyYWluZWRBbGdvcml0aG1pY01lZGlhAAAArGp1bWIAAAAoanVtZGNib3IAEQAQgAAAqgA4m3EDYzJwYS5oYXNoLmRhdGEAAAAAfGNib3KlamV4Y2x1c2lvbnOBomVzdGFydBjEZmxlbmd0aBlFsGRuYW1lbmp1bWJmIG1hbmlmZXN0Y2FsZ2ZzaGEyNTZkaGFzaFggw0UOaZKVISOzeMH56FrFo+tSZqUGhi42FnsD3qlzcw9jcGFkSQAAAAAAAAAAAAAAAgtqdW1iAAAAJGp1bWRjMmNsABEAEIAAAKoAOJtxA2MycGEuY2xhaW0AAAAB32Nib3KoaGRjOnRpdGxlb0dlbmVyYXRlZCBJbWFnZWlkYzpmb3JtYXRtaW1hZ2Uvc3ZnK3htbGppbnN0YW5jZUlEeCx4bXA6aWlkOjczYjYwZjg4LTdiZDEtNDI5NS1hMDQ1LWM5ZDdiYzU2NTIwOG9jbGFpbV9nZW5lcmF0b3J4NkFkb2JlX0lsbHVzdHJhdG9yLzI4LjcgYWRvYmVfYzJwYS8wLjcuNiBjMnBhLXJzLzAuMjUuMnRjbGFpbV9nZW5lcmF0b3JfaW5mb4G/ZG5hbWVxQWRvYmUgSWxsdXN0cmF0b3JndmVyc2lvbmQyOC43/2lzaWduYXR1cmV4GXNlbGYjanVtYmY9YzJwYS5zaWduYXR1cmVqYXNzZXJ0aW9uc4KiY3VybHgnc2VsZiNqdW1iZj1jMnBhLmFzc2VydGlvbnMvYzJwYS5hY3Rpb25zZGhhc2hYIEppwb3/qN5BMHi+JO3M+DE6wdFklTRWcaANawazN9SvomN1cmx4KXNlbGYjanVtYmY9YzJwYS5hc3NlcnRpb25zL2MycGEuaGFzaC5kYXRhZGhhc2hYIOsHm99ydyGsoKT+9nLYpt2HtlFwJP91UjHLkkrYAegmY2FsZ2ZzaGEyNTYAADAQanVtYgAAAChqdW1kYzJjcwARABCAAACqADibcQNjMnBhLnNpZ25hdHVyZQAAAC/gY2JvctKEWQzCogE4JBghglkGEDCCBgwwggP0oAMCAQICEH/ydB/Rxt5DtZR6jmVwnp4wDQYJKoZIhvcNAQELBQAwdTELMAkGA1UEBhMCVVMxIzAhBgNVBAoTGkFkb2JlIFN5c3RlbXMgSW5jb3Jwb3JhdGVkMR0wGwYDVQQLExRBZG9iZSBUcnVzdCBTZXJ2aWNlczEiMCAGA1UEAxMZQWRvYmUgUHJvZHVjdCBTZXJ2aWNlcyBHMzAeFw0yNDAxMTEwMDAwMDBaFw0yNTAxMTAyMzU5NTlaMH8xETAPBgNVBAMMCGNhaS1wcm9kMRMwEQYDVQQKDApBZG9iZSBJbmMuMREwDwYDVQQHDAhTYW4gSm9zZTETMBEGA1UECAwKQ2FsaWZvcm5pYTELMAkGA1UEBhMCVVMxIDAeBgkqhkiG9w0BCQEWEWNhaS1vcHNAYWRvYmUuY29tMIIBIjANBgkqhkiG9w0BAQEFAAOCAQ8AMIIBCgKCAQEA79MAp32GPZZBw7MpK0xuxWJZ2BwXMrmpbg+bvVC487/hbE1ji4PDYa8/UU8SPRHgW7t1pu3+L6j7EGH8ZBKdMCGug1ZhDmYWwHkX24cm1kPw+Fr73JOJhGUfkGZk6SJ+x1+tYG7TBR5SVMZGAXLSKALfUwQBW8/XeSINlhtG7B9/W+v/FEl5yCJOBQenbQUU9cXhMEg7cDndWAaV1zQSZkVh1zSWWfOaH9rQU3rIP5DL06ziScWA2fe1ONesHL21aJpXnrPjV1GN/2QeMR/jbGYpbO5tWy9r9oUpx4i6KmXlCpJWx1Jk+GaY62QnbbiLFpuY9jz1yq+xylLgm2UlwQIDAQAFo4IBjDCCAYgwDAYDVR0TAQH/BAIwADAOBgNVHQ8BAf8EBAMCB4AwHgYDVR0lBBcwFQYJKoZIhvcvAQEMBggrBgEFBQcDBDCBjgYDVR0gBIGGMIGDMIGABgkqhkiG9y8BAgMwczBxBggrBgEFBQcCAjBlDGNZb3UgYXJlIG5vdCBwZXJtaXR0ZWQgdG8gdXNlIHRoaXMgTGljZW5zZSBDZXJ0aWZpY2F0ZSBleGNlcHQgYXMgcGVybWl0dGVkIGJ5IHRoZSBsaWNlbnNlIGFncmVlbWVudC4wXQYDVR0fBFYwVDBSoFCgToZMaHR0cDovL3BraS1jcmwuc3ltYXV0aC5jb20vY2FfN2E1YzNhMGM3MzExNzQwNmFkZDE5MzEyYmMxYmMyM2YvTGF0ZXN0Q1JMLmNybDA3BggrBgEFBQcBAQQrMCkwJwYIKwYBBQUHMAGGG2h0dHA6Ly9wa2ktb2NzcC5zeW1hdXRoLmNvbTAfBgNVHSMEGDAWgBRXKXoyTcz+5DVOwB8kc85zU6vfajANBgkqhkiG9w0BAQsFAAOCAgEAIWPV/Nti76MPfipUnZACP/eVrEv59WObHuWCZHj1By8bGm5UmjTgPQYlXyTj8XE/iY27phgrHg0piDsWDzu5s8B6TKkaMmUvgtk+UgukybbfdtBC6KvtGgy40cO4DkEUoPDitDxT1igbQqdKogAoVKqDEVqnF+CFQQztbGcZhFI9XKTsCQwf9hw7LhJCo6jANBIABNyQtSwWIpPeSEJhPVgWLyKepgQxJMqL6sgYZxGq9pCSQn2gS8pafyQFLByZwEBD/DxytRZZL6b3ZXqF+fZZsE9fsBxpcWFiv8pFvgBQOtCzlSbfG8o7bgBPJXm7mAA8j3t3hDEeEx0Gx8B/9a89pzTebWVrD3SEe0uZl9EbVC++F4EosRJFdYwzuP1iJO1d5I3VxGa9FrVq/FYBGORvvDaTwandizCwae43ozCI97QPEUtS+jJztz1kapHcBsLAh7LxnE82rlmq1o4vfdFsQUz7HEpOkPFkyKohyPTn1FIq4lkJKX3jBA6Na/sxyUZo9uvs4CA+0AeNcTXldyugRUF+mspdbMLiIduigdDLu+LJ3UcxvvLTE3374waDvUD1vzrXVsmJrCxk9CnI/RGmiINSZoDbUQcKPX/PXmCUmMHp0PhnXaanZwSI5Ot0Pit4AnZaU7PvrSQmew1/cp3ZmJcfeB4FGRT3DYprp+lZBqUwggahMIIEiaADAgECAhAMqLZUe4nm0gaJdc2Lm4niMA0GCSqGSIb3DQEBCwUAMGwxCzAJBgNVBAYTAlVTMSMwIQYDVQQKExpBZG9iZSBTeXN0ZW1zIEluY29ycG9yYXRlZDEdMBsGA1UECxMUQWRvYmUgVHJ1c3QgU2VydmljZXMxGTAXBgNVBAMTEEFkb2JlIFJvb3QgQ0EgRzIwHhcNMTYxMTI5MDAwMDAwWhcNNDExMTI4MjM1OTU5WjB1MQswCQYDVQQGEwJVUzEjMCEGA1UEChMaQWRvYmUgU3lzdGVtcyBJbmNvcnBvcmF0ZWQxHTAbBgNVBAsTFEFkb2JlIFRydXN0IFNlcnZpY2VzMSIwIAYDVQQDExlBZG9iZSBQcm9kdWN0IFNlcnZpY2VzIEczMIICIjANBgkqhkiG9w0BAQEFAAOCAg8AMIICCgKCAgEAtx8uvb0Js1xIbP4Mg65sAepReCWkgD6Jp7GyiGTa9ol2gfn5HfOV/HiYjZiOz+TuHFU+DXNad86xEqgVeGVMlvIHGe/EHcKBxvEDXdlTXB5zIEkfl0/SGn7J6vTX8MNybfSi95eQDUOZ9fjCaq+PBFjS5ZfeNmzi/yR+MsA0jKKoWarSRCFFFBpUFQWfAgLyXOyxOnXQOQudjxNj6Wu0X0IB13+IH11WcKcWEWXM4j4jh6hLy29Cd3EoVG3oxcVenMF/EMgD2tXjx4NUbTNB1/g9+MR6Nw5Mhp5k/g3atNExAxhtugC+T3SDShSEJfs2quiiRUHtX3RhOcK1s1OJgT5s2s9xGy5/uxVpcAIaK2KiDJXW3xxN8nXPmk1NSVu/mxtfapr4TvSJbhrU7UA3qhQY9n4On2sbH1X1Tw+7LTek8KCA5ZDghOERPiIp/Jt893qov1bE5rJkagcVg0Wqjh89NhCaBA8VyRt3ovlGyCKdNV2UL3bn5vdFsTk7qqmp9makz1/SuVXYxIf6L6+8RXOatXWaPkmucuLE1TPOeP7S1N5JToFCs80l2D2EtxoQXGCR48K/cTUR5zV/fQ+hdIOzoo0nFn77Y8Ydd2k7/x9BE78pmoeMnw6VXYfXCuWEgj6p7jpbLoxQMoWMCVzlg72WVNhJFlSw4aD8fc6ezeECAwEAAaOCATQwggEwMBIGA1UdEwEB/wQIMAYBAf8CAQAwNQYDVR0fBC4wLDAqoCigJoYkaHR0cDovL2NybC5hZG9iZS5jb20vYWRvYmVyb290ZzIuY3JsMA4GA1UdDwEB/wQEAwIBBjAUBgNVHSUEDTALBgkqhkiG9y8BAQcwVwYDVR0gBFAwTjBMBgkqhkiG9y8BAgMwPzA9BggrBgEFBQcCARYxaHR0cHM6Ly93d3cuYWRvYmUuY29tL21pc2MvcGtpL3Byb2Rfc3ZjZV9jcHMuaHRtbDAkBgNVHREEHTAbpBkwFzEVMBMGA1UEAxMMU1lNQy00MDk2LTMzMB0GA1UdDgQWBBRXKXoyTcz+5DVOwB8kc85zU6vfajAfBgNVHSMEGDAWgBSmHOFtVCRMqI9Icr9uqYzV5Owx1DANBgkqhkiG9w0BAQsFAAOCAgEAcc7lB4ym3C3cyOA7ZV4AkoGV65UgJK+faThdyXzxuNqlTQBlOyXBGFyevlm33BsGO1mDJfozuyLyT2+7IVxWFvW5yYMV+5S1NeChMXIZnCzWNXnuiIQSdmPD82TEVCkneQpFET4NDwSxo8/ykfw6Hx8fhuKz0wjhjkWMXmK3dNZXIuYVcbynHLyJOzA+vWU3sH2T0jPtFp7FN39GZne4YG0aVMlnHhtHhxaXVCiv2RVoR4w1QtvKHQpzfPObR53Cl74iLStGVFKPwCLYRSpYRF7J6vVS/XxW4LzvN2b6VEKOcvJmN3LhpxFRl3YYzW+dwnwtbuHW6WJlmjffbLm1MxLFGlG95aCz31X8wzqYNsvb9+5AXcv8Ll69tLXmO1OtsY/3wILNUEp4VLZTE3wqm3n8hMnClZiiKyZCS7L4E0mClbx+BRSMH3eVo6jgve41/fK3FQM4QCNIkpGs7FjjLy+ptC+JyyWqcfvORrFV/GOgB5hD+G5ghJcIpeigD/lHsCRYsOa5sFdqREhwIWLmSWtNwfLZdJ3dkCc7yRpm3gal6qRfTkYpxTNxxKyvKbkaJDoxR9vtWrC3iNrQd9VvxC3TXtuzoHbqumeqgcAqefWF9u6snQ4Q9FkXzeuJArNuSvPIhgBjVtggH0w0vm/lmCQYiC/Y12GeCxfgYlL33buiZnNpZ1RzdKFpdHN0VG9rZW5zgaFjdmFsWQ41MIIOMTADAgEAMIIOKAYJKoZIhvcNAQcCoIIOGTCCDhUCAQMxDzANBglghkgBZQMEAgEFADCBgQYLKoZIhvcNAQkQAQSgcgRwMG4CAQEGCWCGSAGG/WwHATAxMA0GCWCGSAFlAwQCAQUABCAHHNa5HDjf9mgl4Qp4n9a7XZGdY7XnIbtvWjLCv07pnwIQCyUZm/qMzV/jdXHB7/u27hgPMjAyNDEwMTMxNDE1NDNaAggw94timYehgaCCC70wggUHMIIC76ADAgECAhAFHp6R1x6RCrvkPVzt0N3ZMA0GCSqGSIb3DQEBCwUAMGMxCzAJBgNVBAYTAlVTMRcwFQYDVQQKEw5EaWdpQ2VydCwgSW5jLjE7MDkGA1UEAxMyRGlnaUNlcnQgVHJ1c3RlZCBHNCBSU0E0MDk2IFNIQTI1NiBUaW1lU3RhbXBpbmcgQ0EwHhcNMjMwOTA4MDAwMDAwWhcNMzQxMjA3MjM1OTU5WjBYMQswCQYDVQQGEwJVUzEXMBUGA1UEChMORGlnaUNlcnQsIEluYy4xMDAuBgNVBAMTJ0RpZ2lDZXJ0IEFkb2JlIEFBVEwgVGltZXN0YW1wIFJlc3BvbmRlcjBZMBMGByqGSM49AgEGCCqGSM49AwEHA0IABE0srlH5A/+15/MFl1asNh8Q8TubOsEVfu0qlJrF0smjtwL1IeHZ/AB7J59u1Trpho1BDN85lfTY30rNBsfT+myjggGLMIIBhzAOBgNVHQ8BAf8EBAMCB4AwDAYDVR0TAQH/BAIwADAWBgNVHSUBAf8EDDAKBggrBgEFBQcDCDAgBgNVHSAEGTAXMAgGBmeBDAEEAjALBglghkgBhv1sBwEwHwYDVR0jBBgwFoAUuhbZbU2FL3MpdpovdYxqII+eyG8wHQYDVR0OBBYEFLA1qlbDIamLztO4vIsWJVed7zThMFoGA1UdHwRTMFEwT6BNoEuGSWh0dHA6Ly9jcmwzLmRpZ2ljZXJ0LmNvbS9EaWdpQ2VydFRydXN0ZWRHNFJTQTQwOTZTSEEyNTZUaW1lU3RhbXBpbmdDQS5jcmwwgZAGCCsGAQUFBwEBBIGDMIGAMCQGCCsGAQUFBzABhhhodHRwOi8vb2NzcC5kaWdpY2VydC5jb20wWAYIKwYBBQUHMAKGTGh0dHA6Ly9jYWNlcnRzLmRpZ2ljZXJ0LmNvbS9EaWdpQ2VydFRydXN0ZWRHNFJTQTQwOTZTSEEyNTZUaW1lU3RhbXBpbmdDQS5jcnQwDQYJKoZIhvcNAQELBQADggIBAHgrjELHhBCEWJSCyRX7lsL0C9LJgbX1ryVYySNRxHkMR2LqC7PQZRJgDNR+kJop8P5v2Bzp/jMrzw4U4pY6rYv3I8HpFlJa4uBwUTIUgHWpi8Xxd1JEEX94POODi7HySekX60A055BozFb7GGVaxb0LreQTRXnkr6ggPNUPX9Gh+2ScOxlTdQQLgZbkdYvxo3Ap6cy9riZijRxOZqiOyWSxMUhgKxeKzwrFW6Xbe0awNhOUXZzIxc4ixpKzWSItpPJ30ZiBQn49U3ADYTnshbN9ZkTA1pHf/Nov2ZUvvddkZ8UYvwo9vBvLTDvnmABnRMBKaXYAs3ZCvw9CkDPOWTeUJMFRAtmUx52ohaA3nD8bCJ6UfpQ2pFfOdShwpb6GKv0g+BgcdIG2LHPJ0Ufmr+XmpgZgq/HIge0hjcCADpjDgq2z4B0L4xtAA1M8MrUx02hxb7104nFKqMuv5zJTQl3sgwqXUyP+9zHQP9y/Z5Fx/AQWrOXCW56dV7P4cFBJl8zHqinlhkOStZ1m22+9Hlq+eC0hJ2lkF1LuzRdJJb/51LXoPKRnopFDng6XpoD7eG6w4YpAx9+P00JuUoBsYSrdsuFiyWyQQGBAnjI69ggbSLcW+hJytuinaxawVlItJkS2eV5Z4XsxPg7f82uRkdtN0hTHeI93CN3OWeRebnK7MIIGrjCCBJagAwIBAgIQBzY3tyRUfNhHrP0oZipeWzANBgkqhkiG9w0BAQsFADBiMQswCQYDVQQGEwJVUzEVMBMGA1UEChMMRGlnaUNlcnQgSW5jMRkwFwYDVQQLExB3d3cuZGlnaWNlcnQuY29tMSEwHwYDVQQDExhEaWdpQ2VydCBUcnVzdGVkIFJvb3QgRzQwHhcNMjIwMzIzMDAwMDAwWhcNMzcwMzIyMjM1OTU5WjBjMQswCQYDVQQGEwJVUzEXMBUGA1UEChMORGlnaUNlcnQsIEluYy4xOzA5BgNVBAMTMkRpZ2lDZXJ0IFRydXN0ZWQgRzQgUlNBNDA5NiBTSEEyNTYgVGltZVN0YW1waW5nIENBMIICIjANBgkqhkiG9w0BAQEFAAOCAg8AMIICCgKCAgEAxoY1BkmzwT1ySVFVxyUDxPKRN6mXUaHW0oPRnkyibaCwzIP5WvYRoUQVQl+kiPNo+n3znIkLf50fng8zH1ATCyZzlm34V6gCff1DtITaEfFzsbPuK4CEiiIY3+vaPcQXf6sZKz5C3GeO6lE98NZW1OcoLevTsbV15x8GZY2UKdPZ7Gnf2ZCHRgB720RBidx8ald68Dd5n12sy+iEZLRS8nZH92GDGd1ftFQLIWhuNyG7QKxfst5Kfc71ORJn7w6lY2zkpsUdzTYNXNXmG6jBZHRAp8ByxbpOH7G1WE15/tePc5OsLDnipUjW8LAxE6lXKZYnLvWHpo9OdhVVJnCYJn+gGkcgQ+NDY4B7dW4nJZCYOjgRs/b2nuY7W+yB3iIU2YIqx5K/oN7jPqJz+ucfWmyU8lKVEStYdEAoq3NDzt9KoRxrOMUp88qqlnNCaJ+2RrOdOqPVA+C/8KI8ykLcGEh/FDTP0kyr75s9/g64ZCr6dSgkQe1CvwWcZklSUPRR8zZJTYsg0ixXNXkrqPNFYLwjjVj33GHek/45wPmyMKVM1+mYSlg+0wOI/rOP015LdhJRk8mMDDtbiiKowSYI+RQQEgN9XyO7ZONj4KbhPvbCdLI/Hgl27KtdRnXiYKNYCQEoAA6EVO7O6V3IXjASvUaetdN2udIOa5kM0jO0zbECAwEAAaOCAV0wggFZMBIGA1UdEwEB/wQIMAYBAf8CAQAwHQYDVR0OBBYEFLoW2W1NhS9zKXaaL3WMaiCPnshvMB8GA1UdIwQYMBaAFOzX44LScV1kTN8uZz/nupiuHA9PMA4GA1UdDwEB/wQEAwIBhjATBgNVHSUEDDAKBggrBgEFBQcDCDB3BggrBgEFBQcBAQRrMGkwJAYIKwYBBQUHMAGGGGh0dHA6Ly9vY3NwLmRpZ2ljZXJ0LmNvbTBBBggrBgEFBQcwAoY1aHR0cDovL2NhY2VydHMuZGlnaWNlcnQuY29tL0RpZ2lDZXJ0VHJ1c3RlZFJvb3RHNC5jcnQwQwYDVR0fBDwwOjA4oDagNIYyaHR0cDovL2NybDMuZGlnaWNlcnQuY29tL0RpZ2lDZXJ0VHJ1c3RlZFJvb3RHNC5jcmwwIAYDVR0gBBkwFzAIBgZngQwBBAIwCwYJYIZIAYb9bAcBMA0GCSqGSIb3DQEBCwUAA4ICAQB9WY7Ak7ZvmKlEIgF+ZtbYIULhsBguEE0TzzBTzr8Y+8dQXeJLKftwig2qKWn8acHPHQfpPmDI2AvlXFvXbYf6hCAlNDFnzbYSlm/EUExiHQwIgqgWvalWzxVzjQEiJc6VaT9Hd/tydBTX/6tPiix6q4XNQ1/tYLaqT5Fmniye4Iqs5f2MvGQmh2ySvZ180HAKfO+ovHVPulr3qRCyXen/KFSJ8NWKcXZl2szwcqMj+sAngkSumScbqyQeJsG33irr9p6xeZmBo1aGqwpFyd/EjaDnmPv7pp1yr8THwcFqcdnGE4AJxLafzYeHJLtPo0m5d2aR8XKc6UsCUqc3fpNTrDsdCEkPlM05et3/JWOZJyw9P2un8WbDQc1PtkCbISFA0LcTJM3cHXg65J6t5TRxktcma+Q4c6umAU+9Pzt4rUyt+8SVe+0KXzM5h0F4ejjpnOHdI/0dKNPH+ejxmF/7K9h+8kaddSweJywm228Vex4Ziza4k9Tm8heZWcpw8De/mADfIBZPJ/tgZxahZrrdVcA6KYawmKAr7ZVBtzrVFZgxtGIJDwq9gdkT/r+k0fNX2bwE+oLeMt8EifAAzV3C+dAjfwAL5HYCJtnwZXZCpimHCUcr5n8apIUP/JiW9lVUKx+A+sDyDivl1vupL0QVSucTDh3bNzgaoSv27dZ8/DGCAbgwggG0AgEBMHcwYzELMAkGA1UEBhMCVVMxFzAVBgNVBAoTDkRpZ2lDZXJ0LCBJbmMuMTswOQYDVQQDEzJEaWdpQ2VydCBUcnVzdGVkIEc0IFJTQTQwOTYgU0hBMjU2IFRpbWVTdGFtcGluZyBDQQIQBR6ekdcekQq75D1c7dDd2TANBglghkgBZQMEAgEFAKCB0TAaBgkqhkiG9w0BCQMxDQYLKoZIhvcNAQkQAQQwHAYJKoZIhvcNAQkFMQ8XDTI0MTAxMzE0MTU0M1owKwYLKoZIhvcNAQkQAgwxHDAaMBgwFgQU2Rq5M/4XremCHqYT9aQ6cU4+fn0wLwYJKoZIhvcNAQkEMSIEIOG8nx4f/tSdenFM4+bTOUyXCuG83TPxVYArPV80RjTtMDcGCyqGSIb3DQEJEAIvMSgwJjAkMCIEIILa8ZSVezaEAkWP1ScAaf5ixxRW+p4Lhqv4J+hTICfZMAoGCCqGSM49BAMCBEcwRQIhAImE4oxktqhzlx/JXDaen6nL5Ir3v4k6UouLHt+J4bwzAiB9vKWJ8asL06fzqDezap2xNOxlDww/Js/5MpAU7hTb6mNwYWRZE7UAAAAAAAAAAAAAAAAAAAAAAAAAAAAAAAAAAAAAAAAAAAAAAAAAAAAAAAAAAAAAAAAAAAAAAAAAAAAAAAAAAAAAAAAAAAAAAAAAAAAAAAAAAAAAAAAAAAAAAAAAAAAAAAAAAAAAAAAAAAAAAAAAAAAAAAAAAAAAAAAAAAAAAAAAAAAAAAAAAAAAAAAAAAAAAAAAAAAAAAAAAAAAAAAAAAAAAAAAAAAAAAAAAAAAAAAAAAAAAAAAAAAAAAAAAAAAAAAAAAAAAAAAAAAAAAAAAAAAAAAAAAAAAAAAAAAAAAAAAAAAAAAAAAAAAAAAAAAAAAAAAAAAAAAAAAAAAAAAAAAAAAAAAAAAAAAAAAAAAAAAAAAAAAAAAAAAAAAAAAAAAAAAAAAAAAAAAAAAAAAAAAAAAAAAAAAAAAAAAAAAAAAAAAAAAAAAAAAAAAAAAAAAAAAAAAAAAAAAAAAAAAAAAAAAAAAAAAAAAAAAAAAAAAAAAAAAAAAAAAAAAAAAAAAAAAAAAAAAAAAAAAAAAAAAAAAAAAAAAAAAAAAAAAAAAAAAAAAAAAAAAAAAAAAAAAAAAAAAAAAAAAAAAAAAAAAAAAAAAAAAAAAAAAAAAAAAAAAAAAAAAAAAAAAAAAAAAAAAAAAAAAAAAAAAAAAAAAAAAAAAAAAAAAAAAAAAAAAAAAAAAAAAAAAAAAAAAAAAAAAAAAAAAAAAAAAAAAAAAAAAAAAAAAAAAAAAAAAAAAAAAAAAAAAAAAAAAAAAAAAAAAAAAAAAAAAAAAAAAAAAAAAAAAAAAAAAAAAAAAAAAAAAAAAAAAAAAAAAAAAAAAAAAAAAAAAAAAAAAAAAAAAAAAAAAAAAAAAAAAAAAAAAAAAAAAAAAAAAAAAAAAAAAAAAAAAAAAAAAAAAAAAAAAAAAAAAAAAAAAAAAAAAAAAAAAAAAAAAAAAAAAAAAAAAAAAAAAAAAAAAAAAAAAAAAAAAAAAAAAAAAAAAAAAAAAAAAAAAAAAAAAAAAAAAAAAAAAAAAAAAAAAAAAAAAAAAAAAAAAAAAAAAAAAAAAAAAAAAAAAAAAAAAAAAAAAAAAAAAAAAAAAAAAAAAAAAAAAAAAAAAAAAAAAAAAAAAAAAAAAAAAAAAAAAAAAAAAAAAAAAAAAAAAAAAAAAAAAAAAAAAAAAAAAAAAAAAAAAAAAAAAAAAAAAAAAAAAAAAAAAAAAAAAAAAAAAAAAAAAAAAAAAAAAAAAAAAAAAAAAAAAAAAAAAAAAAAAAAAAAAAAAAAAAAAAAAAAAAAAAAAAAAAAAAAAAAAAAAAAAAAAAAAAAAAAAAAAAAAAAAAAAAAAAAAAAAAAAAAAAAAAAAAAAAAAAAAAAAAAAAAAAAAAAAAAAAAAAAAAAAAAAAAAAAAAAAAAAAAAAAAAAAAAAAAAAAAAAAAAAAAAAAAAAAAAAAAAAAAAAAAAAAAAAAAAAAAAAAAAAAAAAAAAAAAAAAAAAAAAAAAAAAAAAAAAAAAAAAAAAAAAAAAAAAAAAAAAAAAAAAAAAAAAAAAAAAAAAAAAAAAAAAAAAAAAAAAAAAAAAAAAAAAAAAAAAAAAAAAAAAAAAAAAAAAAAAAAAAAAAAAAAAAAAAAAAAAAAAAAAAAAAAAAAAAAAAAAAAAAAAAAAAAAAAAAAAAAAAAAAAAAAAAAAAAAAAAAAAAAAAAAAAAAAAAAAAAAAAAAAAAAAAAAAAAAAAAAAAAAAAAAAAAAAAAAAAAAAAAAAAAAAAAAAAAAAAAAAAAAAAAAAAAAAAAAAAAAAAAAAAAAAAAAAAAAAAAAAAAAAAAAAAAAAAAAAAAAAAAAAAAAAAAAAAAAAAAAAAAAAAAAAAAAAAAAAAAAAAAAAAAAAAAAAAAAAAAAAAAAAAAAAAAAAAAAAAAAAAAAAAAAAAAAAAAAAAAAAAAAAAAAAAAAAAAAAAAAAAAAAAAAAAAAAAAAAAAAAAAAAAAAAAAAAAAAAAAAAAAAAAAAAAAAAAAAAAAAAAAAAAAAAAAAAAAAAAAAAAAAAAAAAAAAAAAAAAAAAAAAAAAAAAAAAAAAAAAAAAAAAAAAAAAAAAAAAAAAAAAAAAAAAAAAAAAAAAAAAAAAAAAAAAAAAAAAAAAAAAAAAAAAAAAAAAAAAAAAAAAAAAAAAAAAAAAAAAAAAAAAAAAAAAAAAAAAAAAAAAAAAAAAAAAAAAAAAAAAAAAAAAAAAAAAAAAAAAAAAAAAAAAAAAAAAAAAAAAAAAAAAAAAAAAAAAAAAAAAAAAAAAAAAAAAAAAAAAAAAAAAAAAAAAAAAAAAAAAAAAAAAAAAAAAAAAAAAAAAAAAAAAAAAAAAAAAAAAAAAAAAAAAAAAAAAAAAAAAAAAAAAAAAAAAAAAAAAAAAAAAAAAAAAAAAAAAAAAAAAAAAAAAAAAAAAAAAAAAAAAAAAAAAAAAAAAAAAAAAAAAAAAAAAAAAAAAAAAAAAAAAAAAAAAAAAAAAAAAAAAAAAAAAAAAAAAAAAAAAAAAAAAAAAAAAAAAAAAAAAAAAAAAAAAAAAAAAAAAAAAAAAAAAAAAAAAAAAAAAAAAAAAAAAAAAAAAAAAAAAAAAAAAAAAAAAAAAAAAAAAAAAAAAAAAAAAAAAAAAAAAAAAAAAAAAAAAAAAAAAAAAAAAAAAAAAAAAAAAAAAAAAAAAAAAAAAAAAAAAAAAAAAAAAAAAAAAAAAAAAAAAAAAAAAAAAAAAAAAAAAAAAAAAAAAAAAAAAAAAAAAAAAAAAAAAAAAAAAAAAAAAAAAAAAAAAAAAAAAAAAAAAAAAAAAAAAAAAAAAAAAAAAAAAAAAAAAAAAAAAAAAAAAAAAAAAAAAAAAAAAAAAAAAAAAAAAAAAAAAAAAAAAAAAAAAAAAAAAAAAAAAAAAAAAAAAAAAAAAAAAAAAAAAAAAAAAAAAAAAAAAAAAAAAAAAAAAAAAAAAAAAAAAAAAAAAAAAAAAAAAAAAAAAAAAAAAAAAAAAAAAAAAAAAAAAAAAAAAAAAAAAAAAAAAAAAAAAAAAAAAAAAAAAAAAAAAAAAAAAAAAAAAAAAAAAAAAAAAAAAAAAAAAAAAAAAAAAAAAAAAAAAAAAAAAAAAAAAAAAAAAAAAAAAAAAAAAAAAAAAAAAAAAAAAAAAAAAAAAAAAAAAAAAAAAAAAAAAAAAAAAAAAAAAAAAAAAAAAAAAAAAAAAAAAAAAAAAAAAAAAAAAAAAAAAAAAAAAAAAAAAAAAAAAAAAAAAAAAAAAAAAAAAAAAAAAAAAAAAAAAAAAAAAAAAAAAAAAAAAAAAAAAAAAAAAAAAAAAAAAAAAAAAAAAAAAAAAAAAAAAAAAAAAAAAAAAAAAAAAAAAAAAAAAAAAAAAAAAAAAAAAAAAAAAAAAAAAAAAAAAAAAAAAAAAAAAAAAAAAAAAAAAAAAAAAAAAAAAAAAAAAAAAAAAAAAAAAAAAAAAAAAAAAAAAAAAAAAAAAAAAAAAAAAAAAAAAAAAAAAAAAAAAAAAAAAAAAAAAAAAAAAAAAAAAAAAAAAAAAAAAAAAAAAAAAAAAAAAAAAAAAAAAAAAAAAAAAAAAAAAAAAAAAAAAAAAAAAAAAAAAAAAAAAAAAAAAAAAAAAAAAAAAAAAAAAAAAAAAAAAAAAAAAAAAAAAAAAAAAAAAAAAAAAAAAAAAAAAAAAAAAAAAAAAAAAAAAAAAAAAAAAAAAAAAAAAAAAAAAAAAAAAAAAAAAAAAAAAAAAAAAAAAAAAAAAAAAAAAAAAAAAAAAAAAAAAAAAAAAAAAAAAAAAAAAAAAAAAAAAAAAAAAAAAAAAAAAAAAAAAAAAAAAAAAAAAAAAAAAAAAAAAAAAAAAAAAAAAAAAAAAAAAAAAAAAAAAAAAAAAAAAAAAAAAAAAAAAAAAAAAAAAAAAAAAAAAAAAAAAAAAAAAAAAAAAAAAAAAAAAAAAAAAAAAAAAAAAAAAAAAAAAAAAAAAAAAAAAAAAAAAAAAAAAAAAAAAAAAAAAAAAAAAAAAAAAAAAAAAAAAAAAAAAAAAAAAAAAAAAAAAAAAAAAAAAAAAAAAAAAAAAAAAAAAAAAAAAAAAAAAAAAAAAAAAAAAAAAAAAAAAAAAAAAAAAAAAAAAAAAAAAAAAAAAAAAAAAAAAAAAAAAAAAAAAAAAAAAAAAAAAAAAAAAAAAAAAAAAAAAAAAAAAAAAAAAAAAAAAAAAAAAAAAAAAAAAAAAAAAAAAAAAAAAAAAAAAAAAAAAAAAAAAAAAAAAAAAAAAAAAAAAAAAAAAAAAAAAAAAAAAAAAAAAAAAAAAAAAAAAAAAAAAAAAAAAAAAAAAAAAAAAAAAAAAAAAAAAAAAAAAAAAAAAAAAAAAAAAAAAAAAAAAAAAAAAAAAAAAAAAAAAAAAAAAAAAAAAAAAAAAAAAAAAAAAAAAAAAAAAAAAAAAAAAAAAAAAAAAAAAAAAAAAAAAAAAAAAAAAAAAAAAAAAAAAAAAAAAAAAAAAAAAAAAAAAAAAAAAAAAAAAAAAAAAAAAAAAAAAAAAAAAAAAAAAAAAAAAAAAAAAAAAAAAAAAAAAAAAAAAAAAAAAAAAAAAAAAAAAAAAAAAAAAAAAAAAAAAAAAAAAAAAAAAAAAAAAAAAAAAAAAAAAAAAAAAAAAAAAAAAAAAAAAAAAAAAAAAAAAAAAAAAAAAAAAAAAAAAAAAAAAAAAAAAAAAAAAAAAAAAAAAAAAAAAAAAAAAAAAAAAAAAAAAAAAAAAAAAAAAAAAAAAAAAAAAAAAAAAAAAAAAAAAAAAAAAAAAAAAAAAAAAAAAAAAAAAAAAAAAAAAAAAAAAAAAAAAAAAAAAAAAAAAAAAAAAAAAAAAAAAAAAAAAAAAAAAAAAAAAAAAAAAAAAAAAAAAAAAAAAAAAAAAAAAAAAAAAAAAAAAAAAAAAAAAAAAAAAAAAAAAAAAAAAAAAAAAAAAAAAAAAAAAAAAAAAAAAAAAAAAAAAAAAAAAAAAAAAAAAAAAAAAAAAAAAAAAAAAAAAAAAAAAAAAAAAAAAAAAAAAAAAAAAAAAAAAAAAAAAAAAAAAAAAAAAAAAAAAAAAAAAAAAAAAAAAAAAAAAAAAAAAAAAAAAAAAAAAAAAAAAAAAAAAAAAAAAAAAAAAAAAAAAAAAAAAAAAAAAAAAAAAAAAAAAAAAAAAAAAAAAAAAAAAAAAAAAAAAAAAAAAAAAAAAAAAAAAAAAAAAAAAAAAAAAAAAAAAAAAAAAAAAAAAAAAAAAAAAAAAAAAAAAAAAAAAAAAAAAAAAAAAAAAAAAAAAAAAAAAAAAAAAAAAAAAAAAAAAAAAAAAAAAAAAAAAAAAAAAAAAAAAAAAAAAAAAAAAAAAAAAAAAAAAAAAAAAAAAAAAAAAAAAAAAAAAAAAAAAAAAAAAAAAAAAAAAAAAAAAAAAAAAAAAAAAAAAAAAAAAAAAAAAAAAAAAAAAAAAAAAAAAAAAAAAAAAAAAAAAAAAAAAAAAAAAAAAAAAAAAAAAAAAAAAAAAAAAAAAAAAAAAAAAAAAAAAAAAAAAAAAAAAAAAAAAAAAAAAAAAAAAAAAAAAAAAAAAAAAAAAAAAAAAAAAAAAAAAAAAAAAAAAAAAAAAAAAAAAAAAAAAAAAAAAAAAAAAAAAAAAAAAAAAAAAAAAAAAAAAAAAAAAAAAAAAAAAAAAAAAAAAAAAAAAAAAAAAAAAAAAAAAAAAAAAAAAAAAAAAAAAAAAAAAAAAAAAAAAAAAAAAAAAAAAAAAAAAAAAAAAAAAAAAAAAAAAAAAAAAAAAAAAAAAAAAAAAAAAAAAAAAAAAAAAAAAAAAAAAAAAAAAAAAAAAAAAAAAAAAAAAAAAAAAAAAAAAAAAAAAAAAAAAAAAAAAAAAAAAAAAAAAAAAAAAAAAAAAAAAAAAAAAAAAAAAAAAAAAAAAAAAAAAAAAAAAAAAAAAAAAAAAAAAAAAAAAAAAAAAAAAAAAAAAAAAAAAAAAAAAAAAAAAAAAAAAAAAAAAAAAAAAAAAAAAAAAAAAAAAAAAAAAAAAAAAAAAAAAAAAAAAAAAAAAAAAAAAAAAAAAAAAAAAAAAAAAAAAAAAAAAAAAAAAAAAAAAAAAAAAAAAAAAAAAAAAAAAAAAAAAAAAAAAAAAAAAAAAAAAAAAAAAAAAAAAAAAAAAAAAAAAAAAAAAAAAAAAAAAAAAAAAAAAAAAAAAAAAAAAAAAAAAAAAAAAAAAAAAAAAAAAAAAAAAAAAAAAAAAAAAAAAAAAAAAAAAAAAAAAAAAAAAAAAAAAAAAAAAAAAAAAAAAAAAAAAAAAAAAAAAAAAAAAAAAAAAAAAAAAAAAAAAAAAAAAAAAAAAAAAAAAAAAAAAAAAAAAAAAAAAAAAAAAAAAAAAAAAAAAAAAAAAAAAAAAAAAAAAAAAAAAAAAAAAAAAAAAAAAAAAAAAAAAAAAAAAAAAAAAAAAAAAAAAAAAAAAAAAAAAAAAAAAAAAAAAAAAAAAAAAAAAAAAAAAAAAAAAAAAAAAAAAAAAAAAAAAAAAAAAAAAAAAAAAAAAAAAAAAAAAAAAAAAAAAAAAAAAAAAAAAAAAAAAAAAAAAAAAAAAAAAAAAAAAAAAAAAAAAAAAAAAAAAAAAAAAAAAAAAAAAAAAAAAAAAAAAAAAAAAAAAAAAAAAAAAAAAAAAAAAAAAAAAAAAAAAAAAAAAAAAAAAAAAAAAAAAAAAAAAAAAAAAAAAAAAAAAAAAAAAAAAAAAAAAAAAAAAAAAAAAAAAAAAAAAAAAAAAAAAAAAAAAAPZZAQCb1XHD8Eloelk9qj9rctusSHv6VRFutoNmcxBv8PyqvcKILT3cOoe/3p6RYD+FHzRwGHB3uVRnySdESIj6FnDW/PlinbUF84NKzYZFt+6OUGI+SKggqitHOr1iNtM9KkDR1r2/n7T/FRyLOV3vYqGJ7Y+Dq7jkH73+/bBiDTFoDHtn60JuFulM8W7HAzHIq3s06Gz/acWH4LDvJV2E8qqeP7OuhlIzPh8VTQ5POztkOfgxGzjQWvHNKH8A7Ifd6nLKxtw8w0gKKbt4jI5nsEcNEjd0PND5fJAGn2szc1eE5kQq48S1jg4Lalltbatjvyct6EmqReGEGyoVwyuy8k7k</c2pa:manifest></metadata><defs><style>.cls-1{fill:#36393b;}</style></defs><path class="cls-1" d="M11.26,9.29c-.07-.01-1.11-.03-1.23,0-.62.17-.66.55-.7.95,0,.01-.12,1.19.23,1.55.17.17.65.25,1.11.25s.93-.08,1.09-.22c.42-.38.29-1.54.28-1.61-.05-.42-.09-.79-.78-.94ZM11.37,11.35c-.21.11-1.19.1-1.35.02-.08-.12-.1-.72-.07-1.06,0,0,0-.08,0-.08.03-.27.03-.29.21-.33.14,0,.88,0,.96,0q.25.05.3.42c.05.4,0,.95-.06,1.04Z"/><path class="cls-1" d="M12.04,6.83c0-.2-.02-.53-.44-.78-.22-.13-1.36-.14-1.48-.12-.71.13-.75.54-.79,1-.04.36-.08,1.23.28,1.55.17.15.62.22,1.07.22s.91-.07,1.07-.22c.39-.35.31-1.35.28-1.55v-.1ZM11.37,7.99c-.2.1-1.17.1-1.34.02-.08-.09-.13-.55-.07-1.09.03-.33.03-.33.28-.38.15-.02.96.02,1.05.04.12.07.12.1.13.26,0,.05,0,.1,0,.15.04.4,0,.92-.06,1Z"/><path class="cls-1" d="M12.04,3.45c-.02-.21-.04-.57-.48-.8-.21-.11-1.44-.1-1.57-.07h0c-.6.17-.63.59-.65.89v.1c-.05.45-.07,1.25.28,1.55.16.14.61.21,1.06.21s.96-.08,1.13-.26c.36-.37.24-1.54.24-1.55v-.08ZM11.38,4.62c-.19.12-1.17.13-1.35.03-.07-.09-.12-.53-.08-1.02v-.11c.03-.27.03-.29.19-.33.16-.02,1.03,0,1.12.01.14.07.14.13.15.3v.1c.05.32.02.92-.04,1.02Z"/><path class="cls-1" d="M6.23,11.82c.18.16.65.25,1.1.25.18,0,.36-.01.51-.04.39-.07.64-.24.76-.49.08-.17.08-1.27.08-1.28-.05-.49-.21-.84-.83-.96-.09-.02-1.07-.02-1.19,0-.63.15-.67.55-.71.96-.03.28-.1,1.23.26,1.57ZM6.6,10.25c.03-.29.03-.3.21-.34.14,0,.85,0,.93,0,.26.05.3.08.33.4,0,.11-.03.91-.03.96-.01.03-.07.07-.18.11-.43.14-1.1.03-1.19-.01-.07-.09-.12-.57-.07-1.12Z"/><path class="cls-1" d="M8.19,6.04c-.2-.1-1.32-.13-1.43-.11-.72.13-.75.53-.79.92v.08c-.03.2-.11,1.19.23,1.52.18.17.65.25,1.11.25s.88-.07,1.04-.21c.44-.36.33-1.59.33-1.61-.03-.27-.07-.64-.5-.85ZM7.98,8c-.2.11-1.16.09-1.32.01-.07-.11-.1-.62-.06-1.02v-.08c.04-.31.04-.32.28-.36.15-.01.95.03,1.04.05.11.05.13.1.16.36.04.34-.02.94-.09,1.04Z"/><path class="cls-1" d="M8.66,3.44c-.02-.27-.05-.6-.52-.81-.18-.08-1.44-.09-1.56-.05-.56.18-.58.56-.6.84v.11c-.03.2-.11,1.22.23,1.55.18.18.65.26,1.11.26s.88-.08,1.05-.22c.41-.34.34-1.31.31-1.59v-.09ZM7.97,4.64c-.2.11-1.16.1-1.32,0-.07-.11-.1-.64-.06-1.05v-.13c.03-.23.03-.24.16-.28.17-.01,1.04,0,1.13.01.14.06.14.07.16.3v.1c.06.49,0,.96-.07,1.04Z"/><path class="cls-1" d="M4.46,9.29c-.07-.01-1-.03-1.14,0-.65.16-.7.56-.74.95-.01.12-.12,1.18.27,1.56.18.18.65.25,1.1.25s.86-.07.99-.16c.41-.28.42-1.05.36-1.65v-.11c-.04-.39-.12-.73-.83-.85ZM4.6,11.37c-.21.09-1.15.09-1.32-.01-.08-.09-.14-.59-.09-1.04.04-.35.04-.36.25-.41.14,0,.82,0,.9,0q.29.05.31.29v.12c.08.63,0,1.01-.06,1.06Z"/><path class="cls-1" d="M5.29,6.82c0-.2,0-.52-.45-.77-.22-.12-1.37-.14-1.48-.11-.7.13-.75.59-.79,1-.03.27-.1,1.18.28,1.53.17.16.67.25,1.14.25.43,0,.84-.07,1.01-.21.34-.28.34-1.01.29-1.56,0-.04,0-.08,0-.11ZM4.62,8c-.2.11-1.16.09-1.33,0-.08-.09-.13-.54-.08-1,.04-.39.04-.4.28-.45.16-.01.97.03,1.06.04.13.07.13.08.12.23,0,.06,0,.11,0,.17.05.55,0,.95-.05,1.01Z"/><path class="cls-1" d="M5.28,3.42c0-.22-.02-.56-.5-.78-.2-.09-1.42-.1-1.56-.06t0,0c-.56.18-.61.58-.65.95-.01.12-.13,1.19.28,1.56.17.16.66.25,1.14.25.43,0,.84-.07,1.01-.21.38-.32.33-1.23.29-1.6v-.11ZM4.62,4.64c-.2.1-1.16.09-1.33,0-.09-.1-.13-.64-.08-1.08.03-.29.04-.32.19-.37.17-.02,1.03,0,1.13.02.13.06.13.06.14.24,0,.05,0,.1,0,.15.05.5,0,.97-.05,1.05Z"/><path class="cls-1" d="M13.53,10.24c.02-.17-.11-.32-.28-.34-.19-.02-.32.11-.34.28-.03.33-.01.67,0,1,.05,1.1,0,1.56-.61,1.67-.55-.04-2.26-.02-4.25,0-2.31.02-5.48.05-5.81-.03-.52-.19-.52-.61-.48-1.32.01-.25.03-.51,0-.75-.02-.17-.17-.29-.34-.28-.17.02-.3.17-.28.34.02.19,0,.42,0,.65-.04.67-.08,1.58.89,1.94.18.07.88.09,2.45.09.89,0,2.06,0,3.58-.02,1.89-.02,3.68-.03,4.27,0,1.3-.22,1.24-1.39,1.2-2.32-.01-.31-.03-.63,0-.92Z"/><path class="cls-1" d="M1.13,9.74c0,.17.14.31.31.31s.31-.14.31-.31v-1.77c0-.17-.14-.31-.31-.31s-.31.14-.31.31v1.77Z"/><path class="cls-1" d="M1.44,7.23c.17,0,.31-.14.31-.31v-2.17c0-.17-.14-.31-.31-.31s-.31.14-.31.31v2.17c0,.17.14.31.31.31Z"/><path class="cls-1" d="M12.33,1.12c-.32-.05-2.07-.04-4.92-.01-2.12.02-4.31.05-5.13.01-1.22.25-1.19,1.19-1.16,1.94,0,.2.02.41,0,.62-.01.17.12.32.29.33.17.01.32-.12.33-.29.02-.23,0-.46,0-.68-.03-.81-.02-1.17.58-1.3.76.04,2.96.02,5.09,0,2.11-.02,4.51-.05,4.8,0,.46.08.61.24.68.72.05.3.02,1.85,0,3.23-.02,1.41-.04,2.87,0,3.5,0,.17.15.29.31.29,0,0,.01,0,.02,0,.17,0,.3-.16.29-.33-.04-.6-.01-2.05,0-3.45.03-1.86.04-3.01-.01-3.33-.12-.74-.47-1.11-1.19-1.23Z"/><path class="cls-1" d="M14.57,1.96c-.17-1.11-1-1.87-2.19-1.96H2.16s-.03,0-.05,0C.93.18.2.92.05,2.08c-.06.47-.06,9.74,0,10.33.13,1.25.82,1.99,2,2.16.27.04,2.77.06,5.28.06s5-.02,5.28-.06c1.13-.16,1.84-.91,1.96-2.08.05-.45.09-9.89,0-10.52ZM13.95,12.42c-.06.62-.36,1.38-1.43,1.53-.49.07-9.91.07-10.39,0-.89-.12-1.37-.65-1.47-1.6-.06-.53-.06-9.76,0-10.18.11-.87.62-1.39,1.52-1.53h10.17c.89.07,1.47.59,1.6,1.43.06.44.06,9.74,0,10.36Z"/></svg>