<?xml version="1.0" encoding="UTF-8"?>
<svg id="Layer_1" data-name="Layer 1" xmlns="http://www.w3.org/2000/svg" version="1.1" viewBox="0 0 1024 1024">
  <defs>
    <style>
      .cls-1 {
        fill: #ef4136;
      }

      .cls-1, .cls-2, .cls-3, .cls-4, .cls-5 {
        stroke: #092049;
        stroke-miterlimit: 10;
        stroke-width: 39px;
      }

      .cls-2 {
        fill: #ff8b2c;
      }

      .cls-3 {
        fill: #27aae1;
      }

      .cls-4 {
        fill: #2bb673;
      }

      .cls-5 {
        fill: #f9ed32;
      }

      .cls-6 {
        fill: #fff;
      }

      .cls-6, .cls-7 {
        stroke-width: 0px;
      }

      .cls-7 {
        fill: #092049;
      }
    </style>
  </defs>
  <circle class="cls-7" cx="512" cy="512" r="512"/>
  <circle class="cls-6" cx="512" cy="512" r="477.5" transform="translate(-212.1 512) rotate(-45)"/>
  <path class="cls-1" d="M488.4,35.1c-2.7,2-5.5,4.2-8.3,6.5-44.1,36-37.3,51.7-37.3,51.7,0,0,2.4,15.7,68.9,67.9,66.6,52.2,94.5,60.2,94.5,60.2,0,0,26.3,10,111.9,6.8,85.6-3.1,95.7-14.4,95.7-14.4,0,0,15.1-7.3.2-63.7-1-3.6-1.9-7-2.9-10.3-6-4.8-12.2-9.5-18.5-14.1-91.7-66.6-199.2-95.9-304.2-90.6Z"/>
  <path class="cls-3" d="M321.7,132.8s-2.3-16.6-60.5-19.9c-3.8-.2-7.4-.3-10.9-.4-47.1,30.8-89.5,70.6-124.6,118.8-35.1,48.3-59.9,101.1-74.6,155.5,1.1,3.2,2.3,6.6,3.7,10.1,20.6,53.1,37.6,51.4,37.6,51.4,0,0,15.7,2.6,85.9-44.6,70.2-47.2,86.5-71.3,86.5-71.3,0,0,17.6-21.9,41.1-104.3,23.5-82.4,15.9-95.5,15.9-95.5Z"/>
  <path class="cls-4" d="M306,795.9c-23.2-81.3-41.1-104.3-41.1-104.3,0,0-15.4-23.5-86.5-71.3-71.1-47.8-85.9-44.6-85.9-44.6,0,0-16.5-2.9-37.6,51.4-1.3,3.5-2.6,6.8-3.7,10,27.5,101.4,88.5,194.4,180.1,261,6.4,4.6,12.9,9.1,19.4,13.4,3.4,0,6.9-.2,10.5-.4,56.9-3.2,60.5-19.9,60.5-19.9,0,0,7.3-14.1-15.9-95.5Z"/>
  <path class="cls-5" d="M811.3,884.2c1-3.3,2-6.7,3-10.3,14.6-55-.2-63.7-.2-63.7,0,0-11.2-11.3-95.7-14.4-84.5-3.1-111.9,6.8-111.9,6.8,0,0-27.1,7.4-94.5,60.2-67.4,52.9-68.9,67.9-68.9,67.9,0,0-7.9,14.8,37.3,51.7,2.9,2.4,5.7,4.6,8.5,6.6,115.1,5.5,230.5-30.7,322.5-104.8Z"/>
  <path class="cls-2" d="M958.3,342.3c-2.8-1.9-5.7-3.9-8.8-5.9-47.8-30.9-60.7-19.5-60.7-19.5,0,0-14.2,7.1-43.3,86.6-29.1,79.4-28.1,108.5-28.1,108.5,0,0-1.4,28.1,28.1,108.5,29.4,80.4,43.3,86.6,43.3,86.6,0,0,11.7,12.1,60.7-19.5,3.2-2.1,6.2-4.1,9-6.1,42-110.4,40.6-231.4-.2-339.1Z"/>
  <path class="cls-7" d="M437,744.2c117.6,38.2,158.7,25.7,158.7,25.7,0,0,34.1-5,113.4-114.4,79.3-109.3,73.6-143.3,73.6-143.3,0,0,3.6-37.1-73.4-143.2-77-106.2-113.2-114.2-113.2-114.2,0,0-35.6-14.3-158.8,25.9-123.1,40.2-143.6,72.7-143.6,72.7,0,0-24.6,27.3-24.7,159.2,0,131.9,24.5,159.2,24.5,159.2,0,0,25.9,34.3,143.5,72.5Z"/>
  <polygon class="cls-6" points="415 356.1 415 667.9 685 512 415 356.1"/>
</svg>