<?xml version="1.0" encoding="UTF-8"?>
<svg id="Layer_1" data-name="Layer 1" xmlns="http://www.w3.org/2000/svg" version="1.1" viewBox="0 0 500 500">
  <defs>
    <style>
      .cls-1 {
        fill: #f5f5f5;
      }

      .cls-1, .cls-2, .cls-3, .cls-4, .cls-5, .cls-6, .cls-7, .cls-8, .cls-9, .cls-10, .cls-11, .cls-12 {
        stroke-width: 0px;
      }

      .cls-2 {
        fill: #cf7a64;
      }

      .cls-3, .cls-5, .cls-8 {
        fill: #407bff;
      }

      .cls-4 {
        fill: #263238;
      }

      .cls-5 {
        opacity: .5;
      }

      .cls-5, .cls-6, .cls-8, .cls-12 {
        isolation: isolate;
      }

      .cls-6 {
        opacity: .9;
      }

      .cls-6, .cls-11 {
        fill: #fff;
      }

      .cls-7, .cls-12 {
        fill: #000;
      }

      .cls-8 {
        opacity: .7;
      }

      .cls-9 {
        fill: #ba4d3c;
      }

      .cls-10 {
        fill: #ce7a63;
      }

      .cls-12 {
        opacity: .2;
      }
    </style>
  </defs>
  <g id="freepik--background-simple--inject-3">
    <path class="cls-3" d="M248.5,115.9c34.4-17.6,62.2-54.7,105.6-49.8,32.6,3.6,49.4,31.6,54,62.6,12,81.6-94.5,143.1-165.6,152.6-73.6,9.8-175.8-22.5-162.5-107,5.5-34.8,33.7-52.9,70.8-58.5,31.5-4.7,70.7,13.8,97.7,0Z"/>
    <path class="cls-6" d="M248.5,115.9c34.4-17.6,62.2-54.7,105.6-49.8,32.6,3.6,49.4,31.6,54,62.6,12,81.6-94.5,143.1-165.6,152.6-73.6,9.8-175.8-22.5-162.5-107,5.5-34.8,33.7-52.9,70.8-58.5,31.5-4.7,70.7,13.8,97.7,0Z"/>
  </g>
  <g id="freepik--Shadow--inject-3">
    <ellipse id="freepik--path--inject-3" class="cls-1" cx="250" cy="416.2" rx="193.9" ry="11.3"/>
  </g>
  <g id="freepik--Character--inject-3">
    <path class="cls-3" d="M223.1,87.7c3.5.4,3.1,3.8.3,4.7s-13.3.3-13.3.3l13-5Z"/>
    <path class="cls-12" d="M223.1,87.7c3.5.4,3.1,3.8.3,4.7s-13.3.3-13.3.3l13-5Z"/>
    <path class="cls-4" d="M187.2,96.4c-3.3,3.6-3.6,13.4-1.3,19.4s11.8,8.3,20,5.6,12.9-10.5,12.9-10.5c0,0,1,2.2,5.4,3.2-.5-3.1-3.4-18.7-7.7-23.5s-25.6-10.2-29.3,5.9Z"/>
    <path class="cls-4" d="M189.4,118c-6.8,3-7.6,9.9-1.8,12.7s12-3.4,10.8-9.2-9-3.6-9-3.6Z"/>
    <path class="cls-2" d="M229.3,151l1.3,3.5c.4,1.2.9,2.4,1.4,3.6.9,2.4,1.9,4.7,3,7s2.1,4.5,3.4,6.6c.3.5.6,1,.9,1.6.3.5.6,1,1,1.5l.5.7v.2c.1,0,.1,0,.1,0v-.2c-.4-.3-.7-.5-1-.6-.4-.2-.8-.3-1.3-.4-.2,0-.4,0-.6,0-.1,0-.3,0-.4,0-.4.1-.5.2-.6.2.2-.1.5-.3.7-.5.4-.3.8-.7,1.1-1.1.8-.9,1.6-1.8,2.3-2.7,1.6-1.9,3-4.1,4.5-6.2,2.9-4.3,5.8-8.8,8.6-13.2l4.9,2.4c-1.9,5.1-4.1,10.1-6.5,14.9-1.2,2.4-2.6,4.8-4.1,7.3-.8,1.2-1.6,2.4-2.5,3.6s-1,1.2-1.6,1.9c-.7.8-1.6,1.4-2.4,2-.7.4-1.6.8-2.4.9-.3,0-.6,0-.9.1-.4,0-.7,0-1.1,0-.8,0-1.5-.3-2.2-.7-.6-.3-1.2-.7-1.6-1.2l-.3-.3h-.1c0-.1-.2-.4-.2-.4l-.7-.9c-.5-.6-.9-1.2-1.4-1.8s-.9-1.2-1.3-1.8c-1.6-2.4-3-4.8-4.3-7.4-1.3-2.5-2.5-5-3.5-7.6-.5-1.3-1-2.6-1.5-3.9s-.9-2.6-1.4-4l10.3-3.4Z"/>
    <path class="cls-3" d="M224.1,140.7c11,5.2,11.2,20.1,11.2,20.1l-13.6,6.6s-8.2-12.6-7.2-18.1c1-5.7,3.4-11.5,9.6-8.6Z"/>
    <path class="cls-12" d="M220.6,152c2.4,1.5,6,7,7.8,12.2l-6.7,3.2s-5.1-7.9-6.8-13.9c.7-1.8,2.7-3.2,5.7-1.5Z"/>
    <path class="cls-10" d="M253.5,147.6l4.3-4.4,5.2,7.6s-4.3,5.4-9.9,3.8l-.6-4c-.2-1.1.2-2.2,1-3Z"/>
    <polygon class="cls-10" points="262.4 138.7 265.7 141.8 263 150.8 257.8 143.2 262.4 138.7"/>
    <polygon class="cls-10" points="181.1 406.2 191.1 407.1 195.6 384 185.6 383 181.1 406.2"/>
    <polygon class="cls-10" points="121.6 379.8 130 385.2 142.4 365.3 133.9 359.9 121.6 379.8"/>
    <path class="cls-4" d="M131.7,382.6l-7.2-8.7c-.3-.3-.7-.4-1-.2l-7.7,4.7c-.7.5-1,1.5-.5,2.2,0,0,0,0,.1.1,2.6,3,3.9,4.3,7.1,8.2,2,2.4,5.9,7.9,8.6,11.1s6.1.8,5.2-.8c-3.7-7.2-4.1-11.5-4-15,0-.6-.3-1.2-.7-1.7Z"/>
    <path class="cls-4" d="M192.3,404.1h-12c-.4,0-.8.3-.9.7l-2.6,9.5c-.2.8.2,1.6,1,1.8.1,0,.3,0,.4,0h27.5c4.4,0,5.3-4.4,3.5-4.8-8.1-1.8-12.8-4.3-15.3-6.6-.4-.4-1-.6-1.6-.6Z"/>
    <polygon class="cls-12" points="195.6 384 193.3 395.9 183.1 395.9 185.6 383 195.6 384"/>
    <polygon class="cls-12" points="133.9 359.9 142.4 365.3 136 375.6 127.5 370.1 133.9 359.9"/>
    <path class="cls-3" d="M227.2,146.7c-.3,6.7-2.5,21.5-10.9,54.6l-40.8-3.5c2.1-16.5,3-26.8-2-61.5,5.8-.7,11.7-.9,17.5-.8,6.2,0,12.4.6,18.5,1.6,4.5.8,9.4,2.1,12.8,3,3,.8,5,3.5,4.8,6.6Z"/>
    <path class="cls-12" d="M180.4,151.7c1.8,3.7,1.1,16.2-3.1,20.6-.1-5-.5-10.8-1.3-18,1-1.5,2.6-2.4,4.4-2.6Z"/>
    <path class="cls-11" d="M197.8,155.2c-.4,0-.8-.2-1.1-.4-6.6-5.9-13-14.1-11.3-18,.7-1.7,3-2.5,6.6-2.2,0,0,0,0,.1,0l13.4,9.6c0,0,0,.1.1.2,0,0,0,.1,0,.2-2.5,2.8-4.6,6-6.1,9.4-.2.5-.7.9-1.2,1-.1,0-.3.1-.4.1ZM190.4,135c-2.6,0-4.1.6-4.7,1.9-1.5,3.5,4.5,11.4,11.2,17.4.3.3.7.4,1.1.3.4,0,.7-.4.9-.8,1.5-3.4,3.5-6.6,6-9.4l-13.1-9.4c-.5,0-.9,0-1.3,0Z"/>
    <path class="cls-11" d="M213.1,155.5h-.1c-.7,0-1.2-.5-1.5-1.1-1.4-3.4-3.2-6.5-5.5-9.4,0,0,0-.2,0-.2l2.7-8.4c0-.1.2-.2.3-.2,3.9.6,6.4,2.3,7.7,5,1.9,4.2.1,9.9-2,13.4-.3.6-.9.9-1.5.9ZM206.5,144.8c2.3,2.8,4.2,6,5.5,9.4.2.4.5.7,1,.8.5,0,.9-.2,1.1-.6,2.1-3.4,3.9-8.9,2-12.9-1.2-2.5-3.6-4.1-7.1-4.7l-2.5,8.1Z"/>
    <path class="cls-10" d="M194.8,114.8c.6,6.1.9,17.1-3.6,20.7,0,0,4.8,4.9,14.6,10.4,7.1-4.9,3.9-8.8,3.9-8.8-6.5-2.2-5.9-7.1-4.4-11.6l-10.5-10.7Z"/>
    <path class="cls-12" d="M199.1,119.2l6.2,6.3c-.4,1.1-.7,2.1-.9,3.2-2.5-.6-6.1-3.2-6.2-5.9,0-1.3.3-2.5.8-3.7Z"/>
    <path class="cls-10" d="M189.5,105.3c2.5,9.7,3.4,13.8,9.3,17.9,8.9,6.1,20.3.9,20.7-9.4.4-9.2-3.8-23.5-14.2-25.5-7.4-1.5-14.6,3.3-16.1,10.7-.4,2.1-.3,4.2.2,6.3Z"/>
    <path class="cls-4" d="M191.1,111.1c11.2-4.3,17.5-17.4,17.5-17.4l7.1,1.6s-2.6-7.7-10.5-8-13,.6-17.1,9.6,2.9,14.2,2.9,14.2Z"/>
    <path class="cls-3" d="M185.3,104c8.6-5.9,18-10.7,27.8-14.2.5-.2.8-.8.7-1.3-.8-2.5-3.2-7-4.9-7.8-1.9-.8-12.8-1.6-17.8.5s-10,10.1-10.7,12c-.6,1.5,1.9,8,3.3,10.5.3.5.9.7,1.4.4,0,0,0,0,.1,0Z"/>
    <path class="cls-11" d="M210.5,87.6l-5.8,1.6c-.2,0-.4,0-.5-.3l-1.4-2.6c-.2-.4-.1-.8.1-.9l5.8-1.6c.2,0,.4,0,.5.3l1.4,2.6c.2.3.1.8-.1.9Z"/>
    <path class="cls-3" d="M193.8,98.7c8-2.5,17.1-2.7,20.4-5s2.1-3.5,9-6.1c-3.1-.3-6.3-.1-9.4.6,0,0-16.8,6.5-20,10.5Z"/>
    <path class="cls-10" d="M188.7,113.6c.9,1.7,2.5,3,4.3,3.6,2.4.7,3.7-1.4,3.1-3.8-.6-2.1-2.6-5-5-4.8-1.8.2-3.1,1.9-2.8,3.7,0,.5.2.9.5,1.3Z"/>
    <path class="cls-4" d="M216.4,201.3s13.8,61,4.6,104.1c-6.2,28.8-23.5,87-23.5,87l-15.6-.4s10.1-61.1,13.6-85.1c6-41.1-9-108.1-9-108.1l29.9,2.6Z"/>
    <path class="cls-12" d="M200.5,213.7l-8.7,13.7c2.6,16.3,4.3,32.7,5,49.1,12.2-21.9,6.4-51.3,3.7-62.9Z"/>
    <polygon class="cls-3" points="198.6 393.4 180 392.8 181.2 386.2 200.2 387.2 198.6 393.4"/>
    <path class="cls-4" d="M207.5,200.7s-9.1,63.9-25.6,99.7c-13.3,28.9-40.7,72-40.7,72l-12.6-6s16.5-43,29-69.8c22.4-48.2,3.4-81.6,18-98.7l31.9,2.8Z"/>
    <polygon class="cls-3" points="141.8 375 126.5 366.7 129 360.1 145.3 369.3 141.8 375"/>
    <path class="cls-3" d="M175.2,195.4l-2.2,3.5c-.2.3.1.6.6.6l42.8,3.7c.4,0,.7-.1.7-.4l.7-3.6c0-.2-.2-.5-.6-.5l-41.3-3.6c-.2,0-.5,0-.7.2Z"/>
    <path class="cls-4" d="M180.3,200.5h-1.1c-.2-.1-.4-.2-.4-.4l.9-4.7c0-.1.2-.2.4-.2h1.1c.2.1.4.2.4.4l-.9,4.7c0,.1-.2.2-.4.2Z"/>
    <path class="cls-4" d="M213.3,203.3h-1.1c-.2-.1-.4-.2-.4-.4l.9-4.7c0-.1.2-.2.4-.2h1.1c.2.1.4.2.4.4l-.9,4.7c0,.1-.2.2-.4.2Z"/>
    <path class="cls-4" d="M196.8,201.9h-1.1c-.2,0-.4-.2-.4-.4l.9-4.7c0-.1.2-.2.4-.2h1.1c.2,0,.4.2.4.4l-.9,4.7c0,.1-.3.2-.4.2Z"/>
    <path class="cls-4" d="M205.8,105c.2.8.7,1.4,1.2,1.3s.8-.8.7-1.6-.7-1.4-1.2-1.3-.8.8-.7,1.6Z"/>
    <path class="cls-4" d="M214.9,103.2c.2.8.7,1.4,1.2,1.3s.8-.8.7-1.6-.7-1.4-1.2-1.3-.8.8-.7,1.6Z"/>
    <path class="cls-4" d="M215.3,101.7l1.8-.9s-.7,1.7-1.8.9Z"/>
    <path class="cls-9" d="M211.8,105.2c1.1,1.7,2.4,3.2,3.9,4.5-.7.8-1.7,1.2-2.7,1.1l-1.1-5.6Z"/>
    <path class="cls-4" d="M209.2,114.7c-1.7,0-3.3-.6-4.6-1.7,0,0,0-.2,0-.3,0,0,.2,0,.3,0,0,0,0,0,0,0,1.5,1.4,3.7,1.9,5.7,1.5.1,0,.2,0,.2.2,0,.1,0,.2-.2.2-.5,0-1,.1-1.5.1Z"/>
    <path class="cls-4" d="M200.4,101.9c0,0-.1,0-.2,0-.2-.1-.2-.4-.1-.5.8-1.3,2.1-2.2,3.6-2.3.2,0,.4.2.4.4s-.2.4-.4.4c-1.2.1-2.3.9-2.9,1.9,0,0-.2.2-.3.2Z"/>
    <path class="cls-4" d="M217.4,98.7c0,0-.1,0-.2,0-1.1-.6-2.4-.7-3.5-.2-.2.1-.4,0-.5-.1,0,0,0,0,0,0-.1-.2,0-.4.2-.5,1.4-.6,3-.5,4.3.2.2.1.3.3.1.5,0,.1-.2.2-.3.2Z"/>
    <path class="cls-2" d="M177.8,152.9c-1.5,4.6-3.1,9.4-4.4,14-.6,2.3-1.2,4.6-1.6,6.8-.2,1-.3,2-.4,3v.7c0-.2-.2-.3-.3-.5h0c0-.1,0,0,0,0,0,0,0,0,0,.1.3.4.8.8,1.2,1,.8.4,1.6.6,2.4.8,2.1.3,4.3.4,6.5.2,2.4-.2,4.7-.5,7.1-.9,2.4-.4,4.8-1,7.1-1.5l2,5c-4.7,2.5-9.8,4.4-15,5.5-2.8.6-5.8.9-8.7.7-1.7-.1-3.3-.4-4.9-1-1.9-.7-3.6-1.8-5-3.2-.2-.2-.4-.4-.5-.6l-.2-.3c0,0,0-.1-.1-.2l-.2-.3c-.4-.7-.8-1.4-1-2.2-.3-1-.4-2-.5-3,0-1.5,0-3.1.2-4.6.3-2.7.8-5.4,1.5-8,1.2-5.1,2.7-10.1,4.6-15l10.3,3.5Z"/>
    <path class="cls-10" d="M193.5,178.5l3.8-8.2,5.6,6.9s-3.2,5-7.4,4.9l-2-3.6Z"/>
    <polygon class="cls-10" points="201.5 167.9 206.8 173.5 202.9 177.2 197.2 170.4 201.5 167.9"/>
    <path class="cls-3" d="M173.6,136.3c-11.1,1.8-11.1,20.6-11.1,20.6l15.2,8.9s6.5-13.8,6-20.4c-.5-5.5-3.8-10.2-10.1-9.2Z"/>
    <path class="cls-3" d="M134.6,387.5c-.1,0-.3,0-.4,0-1.2-.2-2.4-2.2-3-3.4,0,0,0-.2,0-.2,0,0,.1,0,.2,0,.4.1,3.8,1.2,4.2,2.4,0,.3,0,.6-.2.8-.2.2-.5.4-.8.5ZM131.8,384.3c.9,1.6,1.8,2.7,2.5,2.8.3,0,.7,0,.9-.4.1,0,.2-.2.1-.4-.2-.8-2.2-1.6-3.5-2h0Z"/>
    <path class="cls-3" d="M134.5,384.3c-1.1.2-2.2.1-3.2-.1,0,0-.1,0-.1-.2,0,0,0-.1,0-.2.1,0,2.3-1.9,3.8-1.7.4,0,.7.3.9.6.2.3.2.7,0,1-.4.3-.8.6-1.3.6ZM131.8,383.9c1.1.3,3.3.1,3.8-.5,0-.1.2-.2,0-.5-.1-.2-.3-.3-.6-.4-1-.2-2.5.9-3.2,1.4h0Z"/>
    <path class="cls-3" d="M197.6,406.1c-1.1,0-2.2-.2-3.3-.4,0,0-.1,0-.1-.2,0,0,0-.2.1-.2.5-.2,4.8-2.2,5.9-1.5.2.1.3.4.3.6,0,.4-.2.9-.6,1.1-.7.4-1.5.6-2.3.6ZM195,405.4c1.3.2,3.7.5,4.6-.2.3-.2.4-.5.4-.8,0-.1,0-.2-.1-.3-.6-.4-3.2.5-5,1.3h0Z"/>
    <path class="cls-3" d="M194.4,405.7s0,0-.1,0c0,0,0-.1,0-.2,0-.2,1-4.5,3.4-4.2.6,0,.8.4.8.6.1,1.1-2.6,3.3-3.9,3.8h0ZM197.4,401.6c-1.5,0-2.4,2.5-2.7,3.5,1.4-.7,3.4-2.5,3.3-3.2,0,0,0-.2-.4-.3h-.2Z"/>
    <path class="cls-4" d="M206.3,103.5l1.8-.9s-.7,1.7-1.8.9Z"/>
  </g>
  <g id="freepik--Camera--inject-3">
    <path class="cls-7" d="M282.2,173.4h3.4c.7,0,1.3-.5,1.4-1.2,0-.2,0-.5-.1-.7l-2.1-6c-.4-1.1-1.4-1.8-2.5-1.9h-3.4c-.7,0-1.3.5-1.4,1.2,0,.2,0,.5.1.7l2.1,6c.4,1.1,1.4,1.8,2.6,1.9Z"/>
    <path class="cls-4" d="M283.7,173.4h3.4c.7,0,1.3-.5,1.4-1.2,0-.2,0-.5-.1-.7l-2.1-6c-.4-1.1-1.4-1.8-2.5-1.9h-3.4c-.7,0-1.3.5-1.4,1.2,0,.2,0,.5.1.7l2.1,6c.4,1.1,1.4,1.8,2.5,1.9Z"/>
    <path class="cls-7" d="M291.5,173.4h-3.4c-.7,0-1.3-.5-1.4-1.2,0-.2,0-.5.1-.7l2.1-6c.4-1.1,1.4-1.8,2.5-1.9h3.4c.7,0,1.3.5,1.4,1.2,0,.2,0,.5-.1.7l-2.1,6c-.4,1.1-1.4,1.8-2.5,1.9Z"/>
    <path class="cls-4" d="M293,173.4h-3.4c-.7,0-1.3-.5-1.4-1.2,0-.2,0-.5.1-.7l2.1-6c.4-1.1,1.4-1.8,2.5-1.9h3.4c.7,0,1.3.5,1.4,1.2,0,.2,0,.5-.1.7l-2.1,6c-.4,1.1-1.4,1.8-2.5,1.9Z"/>
    <path class="cls-7" d="M294.5,167.6h-4.2l-14.5-1.6c-2-.2-3.6-1.9-3.6-4v-9.5c0-1.8,1.4-3.2,3.2-3.2h19.2c.8,0,1.4.6,1.4,1.4h0v15.7c0,.7-.6,1.3-1.4,1.3Z"/>
    <rect class="cls-4" x="290.3" y="149.1" width="11.2" height="18.4" rx="1.4" ry="1.4"/>
    <polygon class="cls-7" points="301.4 157.9 284 159.9 284 150.5 301.4 150.5 301.4 157.9"/>
    <path class="cls-7" d="M303.9,156.2h-9.4l-32.2-3.6c-4.6-.5-8-4.4-8-8.9v-21.1c0-3.9,3.2-7.1,7.1-7.1,0,0,0,0,0,0h42.5c1.7,0,3,1.3,3,3v34.7c0,1.7-1.3,3-2.9,3.1,0,0,0,0,0,0Z"/>
    <polygon class="cls-7" points="240.8 115.4 231.8 115.4 225.6 93.5 240.8 93.5 240.8 115.4"/>
    <rect class="cls-7" x="260.2" y="104.5" width="9.1" height="2.2"/>
    <rect class="cls-4" x="237.8" y="93.5" width="27" height="21.9"/>
    <polygon class="cls-7" points="256.1 128.8 251.6 128.8 237.8 104.5 242.3 104.5 256.1 128.8"/>
    <polygon class="cls-7" points="283.1 128.8 278.6 128.8 264.8 104.5 269.3 104.5 283.1 128.8"/>
    <rect class="cls-7" x="233.2" y="104.5" width="9.1" height="2.2"/>
    <rect class="cls-4" x="294.5" y="115.4" width="24.7" height="40.8" rx="3" ry="3"/>
    <path class="cls-7" d="M308,127.7h47.8v16.3h-47.8c-4,0-7.2-3.2-7.2-7.2h0v-1.9c0-4,3.2-7.2,7.2-7.2h0Z"/>
    <path class="cls-4" d="M339.8,135.8c0,7.7-6.3,14-14,14s-10.9-6.3-10.9-14,3.2-14,10.9-14,14,6.3,14,14Z"/>
    <path class="cls-7" d="M332.3,153.1l-7.1-4.8c-1.6-1.1-2.5-2.8-2.5-4.8v-15.4c0-1.9.9-3.7,2.5-4.8l7.1-4.8c.3-.2.6-.3.9-.3h32.6c.4,0,.8.2,1.1.5l5.8,5.8c.3.3.5.7.5,1.2v20.1c0,.4-.2.8-.5,1.1l-5.8,5.8c-.3.3-.7.5-1.1.5h-32.6c-.3,0-.6,0-.9-.3Z"/>
    <path class="cls-4" d="M337.3,152.9l-5.8-5.8c-.3-.3-.5-.7-.5-1.1v-20.1c0-.4.2-.9.5-1.2l5.8-5.8c.3-.3.7-.5,1.2-.5h32.5c.4,0,.9.2,1.2.5l5.8,5.8c.3.3.5.7.5,1.2v20.1c0,.4-.2.8-.5,1.1l-5.8,5.8c-.3.3-.7.5-1.2.5h-32.5c-.4,0-.9-.2-1.2-.5Z"/>
    <path class="cls-5" d="M370.3,150.3h-31.3l-5-5v-19c2-2,3-3,5-5h31.3c2,2,3,3,5,5v19l-5,5Z"/>
    <circle class="cls-4" cx="354.7" cy="135.8" r="12.2"/>
    <path class="cls-8" d="M350.8,126.8c-1,0-1.9.2-2.8.5-4.7,3.5-5.7,10.2-2.2,14.9.6.9,1.4,1.6,2.2,2.2.9.3,1.9.5,2.8.5,5,0,9-4,9-9s-4-9-9-9h0Z"/>
    <path class="cls-3" d="M357.5,132.9c0,2-1.6,3.6-3.6,3.6s-3.6-1.6-3.6-3.6,1.6-3.6,3.6-3.6h0c2,0,3.6,1.6,3.6,3.6Z"/>
    <path class="cls-3" d="M286.3,142.8l-33.6-10.1c-1.3-.4-2.2-1.6-2.2-2.9v-6.6c0-1.7,1.4-3.1,3.1-3.1h33.6c1.7,0,3.1,1.4,3.1,3.1v16.6c0,1.7-1.4,3.1-3.1,3.1-.3,0-.6,0-.9-.1Z"/>
    <path class="cls-4" d="M284.5,142.8l-33.6-10.1c-1.3-.4-2.2-1.6-2.2-2.9v-6.6c0-1.7,1.3-3,3-3.1h33.6c1.7,0,3,1.4,3,3.1v16.6c0,1.7-1.4,3-3.1,3-.3,0-.6,0-.8-.1Z"/>
    <path class="cls-3" d="M250.6,137.7v2.4c0,.8.5,1.5,1.3,1.7l36,10.8c1,.3,2-.3,2.3-1.2,0-.2,0-.3,0-.5v-2.4c0-.8-.5-1.5-1.3-1.7l-36-10.8c-1-.3-2,.3-2.3,1.2,0,.2,0,.3,0,.5Z"/>
    <path class="cls-4" d="M296.9,169.4h-20.2v19.8h20.2c3.7,0,6.6-4.4,6.6-9.9s-2.9-9.9-6.6-9.9Z"/>
    <path class="cls-3" d="M276.6,189.2c-3.7,0-6.6-4.4-6.6-9.9s2.9-9.9,6.6-9.9,6.6,4.3,6.6,9.9-2.9,9.9-6.6,9.9Z"/>
    <ellipse class="cls-4" cx="276.6" cy="179.3" rx="4.6" ry="7.9"/>
    <path class="cls-4" d="M287.2,191.8c-5.6,0-10.4,2.7-12.1,6.4-.5,1,0,2.2,1,2.7.3.1.6.2.9.2h20.4c1.1,0,2-.8,2.1-1.9,0-.3,0-.6-.2-.9-1.7-3.7-6.5-6.4-12.1-6.4Z"/>
    <rect class="cls-7" x="276.6" y="189.2" width="21.1" height="6.3" rx="2.3" ry="2.3"/>
    <polygon class="cls-4" points="251.8 416.2 248.6 416.2 277 201 280.2 201 251.8 416.2"/>
    <polygon class="cls-4" points="272.6 416.2 269.5 416.2 283.6 201 286.8 201 272.6 416.2"/>
    <polygon class="cls-4" points="322.5 416.2 325.7 416.2 297.4 201 294.2 201 322.5 416.2"/>
    <polygon class="cls-4" points="302 416.2 304.9 416.2 290.8 201 287.9 201 302 416.2"/>
    <polygon class="cls-7" points="245.7 197.4 244 196.4 265.7 155.2 273.3 155.2 273.3 157.2 266.9 157.2 245.7 197.4"/>
    <rect class="cls-3" x="239.4" y="188.9" width="17.2" height="4" transform="translate(-36.6 321.1) rotate(-62.2)"/>
  </g>
</svg>